<svg xmlns="http://www.w3.org/2000/svg" width="752" height="469" viewBox="0 0 752 469"><defs><mask id="yo33b" width="2" height="2" x="-1" y="-1"><path fill="#fff" d="M16 15h720v437H16z"/><path d="M20 15h712a4 4 0 0 1 4 4v429a4 4 0 0 1-4 4H20a4 4 0 0 1-4-4V19a4 4 0 0 1 4-4z"/></mask><filter id="yo33a" width="772" height="490" x="-10" y="-11" filterUnits="userSpaceOnUse"><feOffset dy="1" in="SourceGraphic" result="FeOffset1128Out"/><feGaussianBlur in="FeOffset1128Out" result="FeGaussianBlur1129Out" stdDeviation="6.4 6.4"/></filter></defs><g><g><g filter="url(#yo33a)"><path fill="none" d="M20 15h712a4 4 0 0 1 4 4v429a4 4 0 0 1-4 4H20a4 4 0 0 1-4-4V19a4 4 0 0 1 4-4z" mask="url(&quot;#yo33b&quot;)"/><path fill-opacity=".15" d="M20 15h712a4 4 0 0 1 4 4v429a4 4 0 0 1-4 4H20a4 4 0 0 1-4-4V19a4 4 0 0 1 4-4z"/></g><path fill="#fff" d="M20 15h712a4 4 0 0 1 4 4v429a4 4 0 0 1-4 4H20a4 4 0 0 1-4-4V19a4 4 0 0 1 4-4z"/></g></g></svg>