<svg xmlns="http://www.w3.org/2000/svg" width="752" height="213" viewBox="0 0 752 213"><defs><mask id="zjbub" width="2" height="2" x="-1" y="-1"><path fill="#fff" d="M16 15h720v181H16z"/><path d="M20 15h712a4 4 0 0 1 4 4v173a4 4 0 0 1-4 4H20a4 4 0 0 1-4-4V19a4 4 0 0 1 4-4z"/></mask><filter id="zjbua" width="772" height="234" x="-10" y="-11" filterUnits="userSpaceOnUse"><feOffset dy="1" in="SourceGraphic" result="FeOffset1234Out"/><feGaussianBlur in="FeOffset1234Out" result="FeGaussianBlur1235Out" stdDeviation="6.4 6.4"/></filter></defs><g><g><g filter="url(#zjbua)"><path fill="none" d="M20 15h712a4 4 0 0 1 4 4v173a4 4 0 0 1-4 4H20a4 4 0 0 1-4-4V19a4 4 0 0 1 4-4z" mask="url(&quot;#zjbub&quot;)"/><path fill-opacity=".15" d="M20 15h712a4 4 0 0 1 4 4v173a4 4 0 0 1-4 4H20a4 4 0 0 1-4-4V19a4 4 0 0 1 4-4z"/></g><path fill="#fff" d="M20 15h712a4 4 0 0 1 4 4v173a4 4 0 0 1-4 4H20a4 4 0 0 1-4-4V19a4 4 0 0 1 4-4z"/></g></g></svg>