<svg xmlns="http://www.w3.org/2000/svg" width="383" height="335" viewBox="0 0 383 335"><defs><clipPath id="t4xra"><path fill="#fff" d="M64 60h255a4 4 0 0 1 4 4v207a4 4 0 0 1-4 4H64a4 4 0 0 1-4-4V64a4 4 0 0 1 4-4z"/></clipPath></defs><g><g><path fill="#fff" d="M64 60h255a4 4 0 0 1 4 4v207a4 4 0 0 1-4 4H64a4 4 0 0 1-4-4V64a4 4 0 0 1 4-4z"/><path fill="none" stroke="#eee" stroke-miterlimit="20" stroke-width="6" d="M64 60h255a4 4 0 0 1 4 4v207a4 4 0 0 1-4 4H64a4 4 0 0 1-4-4V64a4 4 0 0 1 4-4z" clip-path="url(&quot;#t4xra&quot;)"/></g></g></svg>