<svg xmlns="http://www.w3.org/2000/svg" width="271" height="223" viewBox="0 0 271 223"><defs><mask id="tm8yb" width="2" height="2" x="-1" y="-1"><path fill="#fff" d="M4 3h263v215H4z"/><path d="M8 3h255a4 4 0 0 1 4 4v207a4 4 0 0 1-4 4H8a4 4 0 0 1-4-4V7a4 4 0 0 1 4-4z"/></mask><filter id="tm8ya" width="291" height="244" x="-10" y="-11" filterUnits="userSpaceOnUse"><feOffset dy="1" in="SourceGraphic" result="FeOffset1272Out"/><feGaussianBlur in="FeOffset1272Out" result="FeGaussianBlur1273Out" stdDeviation="1.6 1.6"/></filter></defs><g><g><g filter="url(#tm8ya)"><path fill="none" d="M8 3h255a4 4 0 0 1 4 4v207a4 4 0 0 1-4 4H8a4 4 0 0 1-4-4V7a4 4 0 0 1 4-4z" mask="url(&quot;#tm8yb&quot;)"/><path fill-opacity=".15" d="M8 3h255a4 4 0 0 1 4 4v207a4 4 0 0 1-4 4H8a4 4 0 0 1-4-4V7a4 4 0 0 1 4-4z"/></g><path fill="#eee" d="M8 3h255a4 4 0 0 1 4 4v207a4 4 0 0 1-4 4H8a4 4 0 0 1-4-4V7a4 4 0 0 1 4-4z"/></g></g></svg>